<svg xmlns="http://www.w3.org/2000/svg" viewBox="0 0 525.16 118.8"><defs><style>.a{fill:#87ccbc;}.b{fill:#fff;}</style></defs><title>V1 test</title><path class="a" d="M568.14,556.58l25.12,75.57a5.92,5.92,0,0,1,.22,1.24,2.06,2.06,0,0,1-2.13,2.13,2,2,0,0,1-2.13-1.57l-7.4-22.54H549.08L541.79,634a2.11,2.11,0,0,1-2.13,1.57,2.16,2.16,0,0,1-2.24-2.13,6.85,6.85,0,0,1,.56-2l24.78-74.79a2.86,2.86,0,0,1,2.69-1.9A2.67,2.67,0,0,1,568.14,556.58Zm-17.6,50.68h29.93l-15-46Z" transform="translate(-537.42 -540.6)"/><path class="a" d="M626,555.24a2,2,0,0,1,1.8,2,2,2,0,0,1-2,2,46.13,46.13,0,0,0-5.5-.56c-5.71,0-9.41,3.7-9.41,8.86V579h14.8a2.06,2.06,0,0,1,2.13,2.13,2.13,2.13,0,0,1-2.13,2.13h-14.8v50.12a2.16,2.16,0,0,1-2.24,2.13,2.07,2.07,0,0,1-2.14-2.13V567.91c0-8.19,5.61-13.23,13.57-13.23A28.47,28.47,0,0,1,626,555.24Z" transform="translate(-537.42 -540.6)"/><path class="a" d="M659.74,578.67a2.17,2.17,0,0,1,1.91,2.13,2,2,0,0,1-2.13,2,48.24,48.24,0,0,0-7.29-.78c-4.93,0-9.08,3.69-9.08,10v41.38a2.16,2.16,0,0,1-2.25,2.13,2.06,2.06,0,0,1-2.13-2.13V591.9c0-8.63,5.72-14,13.24-14A36.22,36.22,0,0,1,659.74,578.67Z" transform="translate(-537.42 -540.6)"/><path class="a" d="M680,562.3a3.31,3.31,0,1,1-3.36-3.25A3.44,3.44,0,0,1,680,562.3ZM678.91,580v53.37a2.09,2.09,0,0,1-2.24,2.13,2.06,2.06,0,0,1-2.13-2.13V580a2.06,2.06,0,0,1,2.13-2.13A2.09,2.09,0,0,1,678.91,580Z" transform="translate(-537.42 -540.6)"/><path class="a" d="M883.19,558c1.35.56,1.8,1.23,1.8,2.24a1.92,1.92,0,0,1-1.91,2,5.06,5.06,0,0,1-2-.45,42.44,42.44,0,0,0-15.81-2.91c-10.09,0-16.7,6.95-16.7,14,0,8,4,11.66,10.87,15.25l12.9,6.62c7.29,3.81,14.8,8.63,14.8,20.85,0,12.78-10.65,19.85-22.2,19.85a46.18,46.18,0,0,1-19.29-4.15,2.1,2.1,0,0,1-1.45-2,1.91,1.91,0,0,1,2-2.13,4.93,4.93,0,0,1,2,.56,43.68,43.68,0,0,0,16.71,3.48c9.19,0,17.71-5.39,17.71-15.48,0-9.3-5.38-13.45-12.78-17.26l-12.78-6.62c-8.19-4.26-13-9.53-13-18.83,0-10.21,9-18.39,21.42-18.39A44.92,44.92,0,0,1,883.19,558Z" transform="translate(-537.42 -540.6)"/><path class="a" d="M908,562.3a3.31,3.31,0,1,1-3.36-3.25A3.44,3.44,0,0,1,908,562.3ZM906.85,580v53.37a2.09,2.09,0,0,1-2.24,2.13,2.06,2.06,0,0,1-2.13-2.13V580a2.05,2.05,0,0,1,2.13-2.13A2.09,2.09,0,0,1,906.85,580Z" transform="translate(-537.42 -540.6)"/><path class="a" d="M961.34,580.69a3.14,3.14,0,0,1,2,3v56.73c0,11.21-7.29,18.95-19.18,18.95A36.44,36.44,0,0,1,928.82,656a2,2,0,0,1-1.12-1.79,2,2,0,0,1,2-2,5.06,5.06,0,0,1,1.57.34,30.6,30.6,0,0,0,12.89,2.8c9.42,0,14.92-5.94,14.92-14.8V630.25A25.36,25.36,0,0,1,944,635.52c-11.1,0-19-6.28-19-18.95V596.83c0-12.67,8-18.94,19.17-18.94A49.16,49.16,0,0,1,961.34,580.69Zm-32,15.7V617c0,9.08,5.61,14.35,14.8,14.35a23,23,0,0,0,14.8-5.83V584.28a46.88,46.88,0,0,0-14.8-2.24C934.77,582,929.38,587.64,929.38,596.39Z" transform="translate(-537.42 -540.6)"/><path class="a" d="M988.25,556.81v26a29.49,29.49,0,0,1,15.36-4.93c11.43,0,18.38,6.61,18.38,18.94v36.56a2.06,2.06,0,0,1-2.13,2.13,2.16,2.16,0,0,1-2.24-2.13v-37c0-9.54-5.49-14.35-14.35-14.35a25.55,25.55,0,0,0-15,5.49v45.86a2.16,2.16,0,0,1-2.25,2.13,2.06,2.06,0,0,1-2.13-2.13V556.81a2.06,2.06,0,0,1,2.13-2.13A2.15,2.15,0,0,1,988.25,556.81Z" transform="translate(-537.42 -540.6)"/><path class="a" d="M1045.65,556.81V579h14.69a2.09,2.09,0,0,1,2.24,2.13,2.16,2.16,0,0,1-2.24,2.13h-14.69v37.67c0,6.84,3.36,10.43,9.31,10.43,3.25,0,4.37-.56,5.49-.56a2,2,0,0,1,2.13,2,2.17,2.17,0,0,1-1.91,2.13,27.47,27.47,0,0,1-5.83.56c-7.85,0-13.56-4.82-13.56-14.8V556.81a2.05,2.05,0,0,1,2.13-2.13A2.15,2.15,0,0,1,1045.65,556.81Z" transform="translate(-537.42 -540.6)"/><path class="a" d="M739.1,568.46l2.18,2.18a32.14,32.14,0,0,1,45.45,0l2.17-2.18A35.25,35.25,0,0,0,739.1,568.46Z" transform="translate(-537.42 -540.6)"/><path class="a" d="M733.13,562.49l2.17,2.18a40.59,40.59,0,0,1,57.4,0l2.17-2.18A43.71,43.71,0,0,0,733.13,562.49Z" transform="translate(-537.42 -540.6)"/><path class="a" d="M722.33,562.15h0a1.52,1.52,0,0,1,1.52,1.52v49a0,0,0,0,1,0,0h-3a0,0,0,0,1,0,0v-49A1.52,1.52,0,0,1,722.33,562.15Z" transform="translate(280.33 972.91) rotate(-135)"/><path class="a" d="M716.41,556.22h0a1.52,1.52,0,0,1,1.52,1.52v49a0,0,0,0,1,0,0h-3a0,0,0,0,1,0,0v-49A1.52,1.52,0,0,1,716.41,556.22Z" transform="translate(274.4 958.6) rotate(-135)"/><path class="a" d="M710.21,550h0a1.52,1.52,0,0,1,1.52,1.52v49a0,0,0,0,1,0,0h-3a0,0,0,0,1,0,0v-49A1.52,1.52,0,0,1,710.21,550Z" transform="translate(268.21 943.64) rotate(-135)"/><path class="a" d="M739.44,546.59a52.53,52.53,0,0,0-12,9.19c-.14.17-.24.3-.31.4a.93.93,0,0,0-.14.14l.49.49,1.67,1.67h0a43.16,43.16,0,0,1,3.7-3.36h0a49.34,49.34,0,0,1,66,3.35l2.46-2.45a52.75,52.75,0,0,0-47.26-14.49h0l-.11,0A52.74,52.74,0,0,0,742.92,545C741.68,545.49,740.52,546,739.44,546.59Z" transform="translate(-537.42 -540.6)"/><path class="a" d="M788.57,616.85l-2.17-2.18a32.14,32.14,0,0,1-45.45,0l-2.18,2.18A35.25,35.25,0,0,0,788.57,616.85Z" transform="translate(-537.42 -540.6)"/><path class="a" d="M794.54,622.82l-2.17-2.18a40.58,40.58,0,0,1-57.39,0l-2.18,2.18A43.71,43.71,0,0,0,794.54,622.82Z" transform="translate(-537.42 -540.6)"/><path class="a" d="M805.34,572.68h0a1.52,1.52,0,0,1,1.52,1.52v49a0,0,0,0,1,0,0h-3a0,0,0,0,1,0,0v-49a1.52,1.52,0,0,1,1.52-1.52Z" transform="translate(121.25 -934.94) rotate(45)"/><path class="a" d="M811.27,578.61h0a1.52,1.52,0,0,1,1.52,1.52v49a0,0,0,0,1,0,0h-3a0,0,0,0,1,0,0v-49A1.52,1.52,0,0,1,811.27,578.61Z" transform="translate(127.18 -937.39) rotate(45)"/><path class="a" d="M817.46,584.8h0a1.52,1.52,0,0,1,1.52,1.52v49a0,0,0,0,1,0,0h-3a0,0,0,0,1,0,0v-49A1.52,1.52,0,0,1,817.46,584.8Z" transform="translate(133.38 -939.96) rotate(45)"/><path class="a" d="M788.24,638.72a52.81,52.81,0,0,0,12-9.19l.31-.4.14-.14-.49-.49-1.68-1.67h0a41.71,41.71,0,0,1-3.7,3.36h0a49.34,49.34,0,0,1-66.05-3.35l-2.45,2.45a52.72,52.72,0,0,0,47.25,14.49h0l.1,0a53.18,53.18,0,0,0,11.06-3.42C786,639.82,787.15,639.28,788.24,638.72Z" transform="translate(-537.42 -540.6)"/><circle class="a" cx="226.11" cy="52.28" r="21.1"/><path class="b" d="M769.48,603.81c.31.39.09.68-.15,1l-2,2.19a.51.51,0,0,1-.31.13,7.24,7.24,0,0,0-2.17.25c-.14,0-.36-.13-.54-.22a.75.75,0,0,1-.41-.65,5.29,5.29,0,0,0-.5-1.3,1.34,1.34,0,0,0-.22-.36,2.37,2.37,0,0,1-.57-1.78,1,1,0,0,0-.14-.46c-.27-.52-.54-1.05-.82-1.56a1.42,1.42,0,0,1-.14-1,7.37,7.37,0,0,1,.59-2.16.7.7,0,0,0,0-.43,8.34,8.34,0,0,0-1.74-3.3.49.49,0,0,1-.07-.64.38.38,0,0,1,0-.1,1.52,1.52,0,0,0-.1-1.67.32.32,0,0,0-.27-.15,2.21,2.21,0,0,1-1.87-.56.54.54,0,0,0-.63-.06c-.39.17-.81.3-1.21.47a.34.34,0,0,1-.46-.09.48.48,0,0,0-.66-.13,10.58,10.58,0,0,1-1.23.44.72.72,0,0,1-.48,0c-.56-.32-1.12-.66-1.67-1a.52.52,0,0,1-.23-.35,1.85,1.85,0,0,0-1-1.34,1,1,0,0,1-.44-.68,3.77,3.77,0,0,1,.23-1.8,2.29,2.29,0,0,0,0-1.37.57.57,0,0,1,.11-.57c.38-.52.76-1,1.11-1.58a2.22,2.22,0,0,1,.92-.85c.18-.09.35-.23.53-.32a.75.75,0,0,0,.54-.79.57.57,0,0,1,.17-.37c.37-.44.76-.87,1.17-1.28.08-.09.25-.1.38-.13a.14.14,0,0,1,.09,0,2.5,2.5,0,0,0,2.41-.28,1.12,1.12,0,0,1,.55-.13c.35,0,.7,0,1.05,0s1,.08,1.38-.35a1.32,1.32,0,0,1,.53,1.78c.37,0,.69,0,1,0a.51.51,0,0,1,.49.25c.33.63,1,.54,1.54.69,0,0,.13,0,.18-.09a1.33,1.33,0,0,0,.14-.19c.55-.74.54-.7,1.4-.4a19.89,19.89,0,0,0,2.14.58A2,2,0,0,0,769,581a.25.25,0,0,1,.33.16c.4.73.82,1.46,1.23,2.19a.55.55,0,0,1,.09.23,3.23,3.23,0,0,0,.85,1.87,3.93,3.93,0,0,1,.63,1.24.57.57,0,0,0,.21.34,5.45,5.45,0,0,1,1.48,1.51,4.41,4.41,0,0,0,.86.74c.07,0,.24,0,.36,0l1.91-.63a2.36,2.36,0,0,1-.15,1.65,6.18,6.18,0,0,1-1.49,2c-.46.36-.86.8-1.32,1.18a9.11,9.11,0,0,0-1.46,1.7.36.36,0,0,0-.08.18,3.25,3.25,0,0,0,.16,1.72,5.61,5.61,0,0,1,.29,2.57c0,.08-.1.18-.19.24-.66.48-1.32,1-2,1.42a.4.4,0,0,0-.21.42,10.19,10.19,0,0,1,.08,1.24.47.47,0,0,1-.16.33A10.25,10.25,0,0,1,769.48,603.81Z" transform="translate(-537.42 -540.6)"/><path class="b" d="M776.31,598.39c.17.37.35.74.5,1.12a.47.47,0,0,1,0,.28c-.5,1.23-1,2.46-1.5,3.68a.43.43,0,0,1-.3.21c-.8,0-.78,0-1.09-.76a.82.82,0,0,1,.05-.88,2.71,2.71,0,0,0,.31-1.7c0-.11.09-.3.17-.31a2.35,2.35,0,0,0,1.59-1.32l.22-.29Z" transform="translate(-537.42 -540.6)"/></svg>